<svg width="128" height="128" xmlns="http://www.w3.org/2000/svg" style="background-color:#1c1c1c" viewBox="0 0 128 128"><g stroke-width="0"><path d="M91.84 33.28h20.48v20.48H91.84zM81.6 64h7.68v17.92H81.6zm33.28 0h7.68v17.92h-7.68z" fill="#ab907e"/><path d="M93.76 34.88h20.48v20.48H93.76zM83.52 65.6h7.68v17.92h-7.68zm33.28 0h7.68v17.92h-7.68z" fill="#e1bea6"/><path d="M81.6 56.32h7.68V64H81.6zm10.24 0h20.48v30.72H91.84zm23.04 0h7.68V64h-7.68z" fill="#33636c"/><path d="M83.52 57.92h7.68v7.68h-7.68zm10.24 0h20.48v30.72H93.76zm23.04 0h7.68v7.68h-7.68z" fill="#41838f"/><path d="M50.88 58.88h10.24v2.56h-2.56V64h2.56v2.56h5.12V64h2.56v-5.12h10.24v2.56h-5.12V64h-2.56v2.56H68.8v2.56h-2.56v5.12h2.56v2.56h2.56v2.56h2.56v2.56h2.56v2.56H66.24v-2.56h2.56v-2.56h-2.56V76.8h-2.56v-2.56h-2.56v2.56h-2.56v2.56H56v5.12H45.76v-2.56h5.12v-2.56h2.56V76.8H56v-2.56h2.56v-2.56h2.56v-2.56h-2.56v-2.56H56V64h-2.56v-2.56h-2.56z" fill="#be8585"/><path d="M52.8 60.48h10.24v2.56h-2.56v2.56h2.56v2.56h5.12V65.6h2.56v-5.12h10.24v2.56h-5.12v2.56h-2.56v2.56h-2.56v2.56h-2.56v5.12h2.56v2.56h2.56v2.56h2.56v2.56h2.56v2.56H68.16v-2.56h2.56v-2.56h-2.56V78.4H65.6v-2.56h-2.56v2.56h-2.56v2.56h-2.56v5.12H47.68v-2.56h5.12v-2.56h2.56V78.4h2.56v-2.56h2.56v-2.56h2.56v-2.56h-2.56v-2.56h-2.56V65.6h-2.56v-2.56H52.8z" fill="#faafaf"/><path d="M5.12 38.4h43.2v2.56H43.2v2.56H22.72v5.12h-2.56v10.24H43.2v2.56h-5.12V64H17.6v5.12h-2.56v7.68h30.72v2.56H43.2v2.56H12.48v2.56H5.12v-5.12h2.24v-7.68h2.56V64h2.56V53.76h2.56V43.52H7.36v-2.56H5.12z" fill="#beae85"/><path d="M7.04 40h43.2v2.56h-5.12v2.56H24.64v5.12h-2.56v10.24h23.04v2.56H40v2.56H19.52v5.12h-2.56v7.68h30.72v2.56h-2.56v2.56H14.4v2.56H7.04v-5.12h2.24v-7.68h2.56V65.6h2.56V55.36h2.56V45.12H9.28v-2.56H7.04z" fill="#fae6af"/></g></svg>
