<svg width="256" height="256" xmlns="http://www.w3.org/2000/svg" style="background-color:#1c1c1c" viewBox="0 0 256 256"><g stroke-width="0"><path d="M183.68 66.56h40.96v40.96h-40.96zM163.2 128h15.36v35.84H163.2zm66.56 0h15.36v35.84h-15.36z" fill="#ab907e"/><path d="M187.52 69.76h40.96v40.96h-40.96zm-20.48 61.44h15.36v35.84h-15.36zm66.56 0h15.36v35.84H233.6z" fill="#e1bea6"/><path d="M163.2 112.64h15.36V128H163.2zm20.48 0h40.96v61.44h-40.96zm46.08 0h15.36V128h-15.36z" fill="#33636c"/><path d="M167.04 115.84h15.36v15.36h-15.36zm20.48 0h40.96v61.44h-40.96zm46.08 0h15.36v15.36H233.6z" fill="#41838f"/><path d="M101.76 117.76h20.48v5.12h-5.12V128h5.12v5.12h10.24V128h5.12v-10.24h20.48v5.12h-10.24V128h-5.12v5.12h-5.12v5.12h-5.12v10.24h5.12v5.12h5.12v5.12h5.12v5.12h5.12v5.12h-20.48v-5.12h5.12v-5.12h-5.12v-5.12h-5.12v-5.12h-5.12v5.12h-5.12v5.12H112v10.24H91.52v-5.12h10.24v-5.12h5.12v-5.12H112v-5.12h5.12v-5.12h5.12v-5.12h-5.12v-5.12H112V128h-5.12v-5.12h-5.12z" fill="#be8585"/><path d="M105.6 120.96h20.48v5.12h-5.12v5.12h5.12v5.12h10.24v-5.12h5.12v-10.24h20.48v5.12h-10.24v5.12h-5.12v5.12h-5.12v5.12h-5.12v10.24h5.12v5.12h5.12v5.12h5.12v5.12h5.12v5.12h-20.48v-5.12h5.12v-5.12h-5.12v-5.12h-5.12v-5.12h-5.12v5.12h-5.12v5.12h-5.12v10.24H95.36v-5.12h10.24v-5.12h5.12v-5.12h5.12v-5.12h5.12v-5.12h5.12v-5.12h-5.12v-5.12h-5.12v-5.12h-5.12v-5.12h-5.12z" fill="#faafaf"/><path d="M10.24 76.8h86.4v5.12H86.4v5.12H45.44v10.24h-5.12v20.48H86.4v5.12H76.16V128H35.2v10.24h-5.12v15.36h61.44v5.12H86.4v5.12H24.96v5.12H10.24v-10.24h4.48v-15.36h5.12V128h5.12v-20.48h5.12V87.04H14.72v-5.12h-4.48z" fill="#beae85"/><path d="M14.08 80h86.4v5.12H90.24v5.12H49.28v10.24h-5.12v20.48h46.08v5.12H80v5.12H39.04v10.24h-5.12v15.36h61.44v5.12h-5.12v5.12H28.8v5.12H14.08v-10.24h4.48v-15.36h5.12V131.2h5.12v-20.48h5.12V90.24H18.56v-5.12h-4.48z" fill="#fae6af"/></g></svg>