<svg width="32" height="32" xmlns="http://www.w3.org/2000/svg" style="background-color:#1c1c1c" viewBox="0 0 32 32"><g stroke-width="0"><path d="M22.96 8.32h5.12v5.12h-5.12zM20.4 16h1.92v4.48H20.4zm8.32 0h1.92v4.48h-1.92z" fill="#ab907e"/><path d="M23.44 8.72h5.12v5.12h-5.12zm-2.56 7.68h1.92v4.48h-1.92zm8.32 0h1.92v4.48H29.2z" fill="#e1bea6"/><path d="M20.4 14.08h1.92V16H20.4zm2.56 0h5.12v7.68h-5.12zm5.76 0h1.92V16h-1.92z" fill="#33636c"/><path d="M20.88 14.48h1.92v1.92h-1.92zm2.56 0h5.12v7.68h-5.12zm5.76 0h1.92v1.92H29.2z" fill="#41838f"/><path d="M12.72 14.72h2.56v.64h-.64V16h.64v.64h1.28V16h.64v-1.28h2.56v.64h-1.28V16h-.64v.64h-.64v.64h-.64v1.28h.64v.64h.64v.64h.64v.64h.64v.64h-2.56v-.64h.64v-.64h-.64v-.64h-.64v-.64h-.64v.64h-.64v.64H14v1.28h-2.56v-.64h1.28v-.64h.64v-.64H14v-.64h.64v-.64h.64v-.64h-.64v-.64H14V16h-.64v-.64h-.64z" fill="#be8585"/><path d="M13.2 15.12h2.56v.64h-.64v.64h.64v.64h1.28v-.64h.64v-1.28h2.56v.64h-1.28v.64h-.64v.64h-.64v.64h-.64v1.28h.64v.64h.64v.64h.64v.64h.64v.64h-2.56v-.64h.64v-.64h-.64v-.64h-.64v-.64h-.64v.64h-.64v.64h-.64v1.28h-2.56v-.64h1.28v-.64h.64v-.64h.64v-.64h.64v-.64h.64v-.64h-.64v-.64h-.64v-.64h-.64v-.64h-.64z" fill="#faafaf"/><path d="M1.28 9.6h10.8v.64H10.8v.64H5.68v1.28h-.64v2.56h5.76v.64H9.52V16H4.4v1.28h-.64v1.92h7.68v.64h-.64v.64H3.12v.64H1.28v-1.28h.56v-1.92h.64V16h.64v-2.56h.64v-2.56H1.84v-.64h-.56z" fill="#beae85"/><path d="M1.76 10h10.8v.64h-1.28v.64H6.16v1.28h-.64v2.56h5.76v.64H10v.64H4.88v1.28h-.64v1.92h7.68v.64h-.64v.64H3.6v.64H1.76v-1.28h.56v-1.92h.64V16.4h.64v-2.56h.64v-2.56H2.32v-.64h-.56z" fill="#fae6af"/></g></svg>