<svg width="64" height="64" xmlns="http://www.w3.org/2000/svg" style="background-color:#1c1c1c" viewBox="0 0 64 64"><g stroke-width="0"><path d="M45.92 16.64h10.24v10.24H45.92zM40.8 32h3.84v8.96H40.8zm16.64 0h3.84v8.96h-3.84z" fill="#ab907e"/><path d="M46.88 17.44h10.24v10.24H46.88zM41.76 32.8h3.84v8.96h-3.84zm16.64 0h3.84v8.96H58.4z" fill="#e1bea6"/><path d="M40.8 28.16h3.84V32H40.8zm5.12 0h10.24v15.36H45.92zm11.52 0h3.84V32h-3.84z" fill="#33636c"/><path d="M41.76 28.96h3.84v3.84h-3.84zm5.12 0h10.24v15.36H46.88zm11.52 0h3.84v3.84H58.4z" fill="#41838f"/><path d="M25.44 29.44h5.12v1.28h-1.28V32h1.28v1.28h2.56V32h1.28v-2.56h5.12v1.28h-2.56V32h-1.28v1.28H34.4v1.28h-1.28v2.56h1.28v1.28h1.28v1.28h1.28v1.28h1.28v1.28h-5.12v-1.28h1.28v-1.28h-1.28V38.4h-1.28v-1.28h-1.28v1.28h-1.28v1.28H28v2.56h-5.12v-1.28h2.56v-1.28h1.28V38.4H28v-1.28h1.28v-1.28h1.28v-1.28h-1.28v-1.28H28V32h-1.28v-1.28h-1.28z" fill="#be8585"/><path d="M26.4 30.24h5.12v1.28h-1.28v1.28h1.28v1.28h2.56V32.8h1.28v-2.56h5.12v1.28h-2.56v1.28h-1.28v1.28h-1.28v1.28h-1.28v2.56h1.28v1.28h1.28v1.28h1.28v1.28h1.28v1.28h-5.12v-1.28h1.28v-1.28h-1.28V39.2H32.8v-1.28h-1.28v1.28h-1.28v1.28h-1.28v2.56h-5.12v-1.28h2.56v-1.28h1.28V39.2h1.28v-1.28h1.28v-1.28h1.28v-1.28h-1.28v-1.28h-1.28V32.8h-1.28v-1.28H26.4z" fill="#faafaf"/><path d="M2.56 19.2h21.6v1.28H21.6v1.28H11.36v2.56h-1.28v5.12H21.6v1.28h-2.56V32H8.8v2.56H7.52v3.84h15.36v1.28H21.6v1.28H6.24v1.28H2.56v-2.56h1.12v-3.84h1.28V32h1.28v-5.12h1.28v-5.12H3.68v-1.28H2.56z" fill="#beae85"/><path d="M3.52 20h21.6v1.28h-2.56v1.28H12.32v2.56h-1.28v5.12h11.52v1.28H20v1.28H9.76v2.56H8.48v3.84h15.36v1.28h-1.28v1.28H7.2v1.28H3.52v-2.56h1.12v-3.84h1.28V32.8H7.2v-5.12h1.28v-5.12H4.64v-1.28H3.52z" fill="#fae6af"/></g></svg>