<svg width="800" height="256" xmlns="http://www.w3.org/2000/svg" style="background-color:#1c1c1c"><g stroke-width="0"><path fill="#ab907e" d="M474.886 46.656h55.688v55.687h-55.688Zm-27.843 83.53h20.883v48.727h-20.883zm90.492 0h20.882v48.727h-20.882z"/><path fill="#e1bea6" d="M480.107 51.006h55.687v55.687h-55.687Zm-27.843 83.531h20.882v48.726h-20.882Zm90.491 0h20.883v48.726h-20.883z"/><path fill="#33636c" d="M447.043 109.304h20.883v20.882h-20.883zm27.843 0h55.688v83.53h-55.688zm62.649 0h20.882v20.882h-20.882z"/><path fill="#41838f" d="M452.264 113.654h20.882v20.883h-20.882Zm27.843 0h55.687v83.531h-55.687zm62.648 0h20.883v20.883h-20.883z"/><path fill="#be8585" d="M363.512 116.265h27.844v6.96h-6.961v6.961h6.96v6.961h13.922v-6.96h6.961v-13.922h27.844v6.96H426.16v6.961h-6.96v6.961h-6.962v6.961h-6.96v13.922h6.96v6.96h6.961v6.962h6.961v6.96h6.961v6.962h-27.844v-6.961h6.961v-6.961h-6.96v-6.961h-6.961v-6.961h-6.961v6.96h-6.961v6.962h-6.961v13.922H349.59v-6.961h13.922v-6.961h6.961v-6.961h6.96v-6.961h6.962v-6.96h6.96v-6.962h-6.96v-6.96h-6.961v-6.962h-6.961v-6.96h-6.96z"/><path fill="#faafaf" d="M368.733 120.615h27.843v6.961h-6.96v6.961h6.96v6.96h13.922v-6.96h6.961v-13.922h27.844v6.961H431.38v6.961h-6.961v6.96h-6.96v6.962h-6.962v13.922h6.961v6.96h6.961v6.961h6.96v6.961h6.962v6.961h-27.844v-6.96h6.961v-6.962h-6.96v-6.96h-6.962v-6.961h-6.96v6.96h-6.962v6.961h-6.96v13.922H354.81v-6.96h13.922v-6.962h6.96v-6.96h6.962v-6.961h6.96v-6.961h6.961v-6.961h-6.96v-6.961h-6.961v-6.961h-6.961v-6.96h-6.961z"/><path fill="#beae85" d="M239.086 60.577h117.465v6.961H342.63V74.5h-55.687v13.922h-6.96v27.844h62.647v6.96h-13.921v6.961H273.02v13.922h-6.96v20.883h83.53v6.96h-6.96v6.962h-83.531v6.96h-20.013v-13.921h6.09V151.07h6.962v-20.883h6.96v-27.843h6.962V74.499h-20.883v-6.96h-6.09Z"/><path fill="#fae6af" d="M244.307 64.928h117.465v6.96H347.85v6.962h-55.687v13.922h-6.961v27.843h62.648v6.961h-13.922v6.961h-55.687v13.922h-6.96v20.882h83.53v6.961h-6.96v6.961h-83.532v6.961h-20.012v-13.922h6.09V155.42h6.961v-20.883h6.961v-27.844h6.961V78.85h-20.882v-6.961h-6.091z"/></g></svg>
